{"title":"One Direction - Story of My Life [720p] [WEB DL] [JRR].mp4","uid":10985095,"size":49269441,"categoryP":"audio","categoryS":"music","magnet":"?xt=urn:btih:77ff59f67eada1ddc160720382fb492790c5b235&amp;dn=One+Direction+-+Story+of+My+Life+%5B720p%5D+%5BWEB+DL%5D+%5BJRR%5D.mp4&amp;tr=udp%3A%2F%2Ftracker.openbittorrent.com%3A80&amp;tr=udp%3A%2F%2Fopen.demonii.com%3A1337&amp;tr=udp%3A%2F%2Ftracker.coppersurfer.tk%3A6969&amp;tr=udp%3A%2F%2Fexodus.desync.com%3A6969","seeders":3,"leechers":0,"uploader":"JRRtv","files":1,"time":1409913443,"description":"[center][b][size=200][color=orange]^_^ JRR STuDios ^_^[/color][/size]\n\n\n[size=150][color=red][u]One Direction[/u][/color][/size]\n\n[size=100][i]~~~ Story of my Life ~~~[/i][/size] [/b]\n\n[img]http://upload.wikimedia.org/wikipedia/en/7/7d/One_Direction_-_Story_of_My_Life_(Official_Single_Cover).png[/img]\n[/center]\n\n[b]General[/b] \nFormat : MPEG-4 \nFormat profile : Base Media / Version 2 \nCodec ID : mp42 \nFile size : 47.0 MiB \nDuration : 4mn 7s \nOverall bit rate mode : Variable \nOverall bit rate : 1 592 Kbps \n\n\n[b]Video[/b] \nID : 1 \nFormat : AVC \nFormat/Info : Advanced Video Codec \nFormat profile : &lt;a class=&quot;__cf_email__&quot; href=&quot;/cdn-cgi/l/email-protection&quot; data-cfemail=&quot;eea6878986aea2ddc0df&quot;&gt;[email&amp;#160;protected]&lt;/a&gt;&lt;script cf-hash='f9e31' type=&quot;text/javascript&quot;&gt;\n/* &lt;![CDATA[ */!function(){try{var t=&quot;currentScript&quot;in document?document.currentScript:function(){for(var t=document.getElementsByTagName(&quot;script&quot;),e=t.length;e--;)if(t[e].getAttribute(&quot;cf-hash&quot;))return t[e]}();if(t&amp;&amp;t.previousSibling){var e,r,n,i,c=t.previousSibling,a=c.getAttribute(&quot;data-cfemail&quot;);if(a){for(e=&quot;&quot;,r=parseInt(a.substr(0,2),16),n=2;a.length-n;n+=2)i=parseInt(a.substr(n,2),16)^r,e+=String.fromCharCode(i);e=document.createTextNode(e),c.parentNode.replaceChild(e,c)}}}catch(u){}}();/* ]]&gt; */&lt;/script&gt; \nFormat settings, CABAC : Yes \nFormat settings, ReFrames : 1 frame \nCodec ID : avc1 \nCodec ID/Info : Advanced Video Coding \nDuration : 4mn 7s \nBit rate : 1 397 Kbps \nMaximum bit rate : 3 622 Kbps \nWidth : 1 280 pixels \nHeight : 720 pixels \nDisplay aspect ratio : 16:9 \nFrame rate mode : Constant \nFrame rate : 25.000 fps \nColor space : YUV \nBit depth : 8 bits \nScan type : Progressive \nBits/(Pixel*Frame) : 0.061 \nStream size : 41.2 MiB (88%) \n\n\n[b]Audio[/b] \nID : 2 \nFormat : AAC \nFormat/Info : Advanced Audio Codec \nFormat profile : LC \nCodec ID : 40 \nDuration : 4mn 7s \nBit rate mode : Variable \nBit rate : 192 Kbps \nMaximum bit rate : 203 Kbps \nChannel(s) : 2 channels \nChannel positions : Front: L R \nSampling rate : 44.1 KHz \nCompression mode : Lossy \nStream size : 5.67 MiB (12%) \n\n\n\n\n[/center]\n","torrent":{"xt":"urn:btih:77ff59f67eada1ddc160720382fb492790c5b235","amp;dn":"One+Direction+-+Story+of+My+Life+%5B720p%5D+%5BWEB+DL%5D+%5BJRR%5D.mp4","amp;tr":["udp%3A%2F%2Ftracker.openbittorrent.com%3A80","udp%3A%2F%2Fopen.demonii.com%3A1337","udp%3A%2F%2Ftracker.coppersurfer.tk%3A6969","udp%3A%2F%2Fexodus.desync.com%3A6969"],"infoHash":"77ff59f67eada1ddc160720382fb492790c5b235","infoHashBuffer":{"type":"Buffer","data":[119,255,89,246,126,173,161,221,193,96,114,3,130,251,73,39,144,197,178,53]},"announce":[],"urlList":[]}}